# xmcd CD database file
#
# Track frame offsets:
#	150
#	15292
#	31354
#	42908
#	56594
#	69221
#	84099
#	97830
#	109336
#	120108
#	131561
#	145221
#	157265
#	167178
#	178427
#	184621
#	194921
#	206791
#
# Disc length: 2996 seconds
#
# Revision: 0
# Processed by: cddbd v1.5.1PL2 Copyright (c) Steve Scherf et al.
# Submitted via: CDex 1.51
#
DISCID=f80bb212
DTITLE=AA.VV - Essential Performers - CD1
DYEAR=2005
DGENRE=Blues
TTITLE0=Louis Armstrong - Mack the knife
TTITLE1=Glenn Miller - In the mood
TTITLE2=Ella Fitzgerald - It's only a paper moon
TTITLE3=Billie Holiday - They can't take that away from me
TTITLE4=Dinah Washigton - Mad about the boy
TTITLE5=F.Sinatra/Dinah Shore - Tea for two
TTITLE6=Perry Como/Henri Rene and Orch. - Far away places
TTITLE7=Dean Martin - Baby obey me
TTITLE8=Sammy Davis Jr. - Oh lonesome me
TTITLE9=John Lee Hooker - Boom boom
TTITLE10=Ray Charles - This love of mine
TTITLE11=Roy Orbison - Dream baby
TTITLE12=Little Richard - Lucille
TTITLE13=Jerry Lee Lewis - High school confidential
TTITLE14=Neil Sedaka - Oh Carol (live)
TTITLE15=Pat Boone - Love letters in the sand
TTITLE16=Tom Jones - Delilah
TTITLE17=Chuck Berry - My ding a ling
EXTD=YEAR: 2005
EXTT0=
EXTT1=
EXTT2=
EXTT3=
EXTT4=
EXTT5=
EXTT6=
EXTT7=
EXTT8=
EXTT9=
EXTT10=
EXTT11=
EXTT12=
EXTT13=
EXTT14=
EXTT15=
EXTT16=
EXTT17=
PLAYORDER=
